<?xml version="1.0" encoding="utf-8"?>
<!-- Generator: Adobe Illustrator 27.9.3, SVG Export Plug-In . SVG Version: 9.03 Build 53313)  -->
<svg version="1.1" id="Layer_1" xmlns="http://www.w3.org/2000/svg" xmlns:xlink="http://www.w3.org/1999/xlink" x="0px" y="0px"
	 viewBox="0 0 202.6 188" style="enable-background:new 0 0 202.6 188;" xml:space="preserve">
<g>
	<g>
		<path d="M61.3,34.6c27.4-18.7,65.3-15.8,89.5,8.6s26.8,62.2,7.9,89.5l9.6,9.7c24.1-32.7,21.5-79-8-108.7S84.5,1,51.7,24.9
			L61.3,34.6z"/>
		<path d="M136.6,153.2c-27,15.9-62.5,12.2-85.6-11.1S24.5,83.4,40.6,56.5l-9.7-9.8c-21.3,32.4-17.8,76.4,10.6,105
			s72.4,32.4,104.9,11.4L136.6,153.2z"/>
	</g>
	<g>
		<g>
			<path d="M39.4,22.4c-2.9-0.5-6.1,0.4-8.4,2.7l-3.2,3.2c-1.9,1.9-2.8,4.4-2.7,6.8l-3.7-3.7c0-2.4,1-4.9,2.8-6.7l3.3-3.3
				c2.2-2.2,5.2-3.1,8-2.8L39.4,22.4z"/>
			<path d="M34.1,18.4c-2.4,0.1-4.8,1-6.7,2.9l-3.3,3.3c-1.9,1.9-2.8,4.3-2.8,6.7l3.7,3.7c0-2.5,0.9-4.9,2.7-6.8l3.2-3.2
				c1.8-1.8,4.2-2.7,6.5-2.8c0.6,0,1.2,0,1.8,0.1l-3.9-3.9C35,18.5,34.6,18.4,34.1,18.4L34.1,18.4z"/>
		</g>
		<g>
			<path d="M28.4,9.6c-3-0.5-6.2,0.3-8.5,2.4l-3.3,2.9c-1.9,1.7-2.9,3.9-2.9,6.2l-4.1-3.7C6,14,6.1,8.5,9.9,5.1
				c1.7-1.5,3.7-2.3,5.9-2.5c2.8-0.3,5.7,0.6,7.8,2.5L28.4,9.6z"/>
			<path d="M16.5,2.6c-0.2,0-0.5,0-0.7,0c-2.1,0.2-4.2,1-5.9,2.5C6.1,8.5,6,14,9.6,17.3l4.1,3.7c0-2.2,1-4.5,2.9-6.2l3.3-2.9
				c1.8-1.6,4.2-2.5,6.6-2.5c0.6,0,1.3,0,1.9,0.1l-4.9-4.5C21.6,3.3,19.1,2.5,16.5,2.6L16.5,2.6z"/>
		</g>
		<polygon points="193.3,185.4 178.5,154.4 162.2,170.6 		"/>
	</g>
</g>
</svg>
