<?xml version="1.0" encoding="utf-8"?>
<!-- Generator: Adobe Illustrator 27.9.3, SVG Export Plug-In . SVG Version: 9.03 Build 53313)  -->
<svg version="1.1" id="Layer_1" xmlns="http://www.w3.org/2000/svg" xmlns:xlink="http://www.w3.org/1999/xlink" x="0px" y="0px"
	 viewBox="0 0 1090.6 188" style="enable-background:new 0 0 1090.6 188;" xml:space="preserve">
<g>
	<g>
		<path d="M279.1,32.9h11.5v86c0,7.1-2.3,12.7-6.8,16.8c-4.5,4.1-11.5,6.1-20.9,6.1c-9.4,0-16.4-2-21.1-6.1c-4.6-4.1-7-9.7-7-16.8
			v-86h11.5v86c0,4,1.4,7.2,4.1,9.6c2.7,2.4,6.9,3.5,12.5,3.5c5.5,0,9.5-1.2,12.2-3.5c2.7-2.3,4-5.5,4-9.6V32.9z"/>
		<path d="M353.2,32.9l24.1,106.5h-11.5l-5.6-24.6H329l-5.6,24.6h-11.5L336,32.9H353.2z M331.1,105H358l-13.4-59.3L331.1,105z"/>
		<path d="M400.2,139.4V32.9h26.4c8.7,0,15.3,2,19.6,6.1c4.3,4.1,6.5,9.7,6.5,16.8v60.6c0,7.1-2.1,12.7-6.4,16.8
			c-4.3,4.1-10.8,6.1-19.7,6.1H400.2z M441.2,55.8c0-3.2-1.2-6.1-3.7-8.9c-2.5-2.8-6.1-4.2-10.9-4.2h-14.9v86.9h14.9
			c4.9,0,8.6-1.4,11-4.1c2.4-2.7,3.6-5.7,3.6-9V55.8z"/>
		<path d="M483,139.4V32.9h24.7c8.7,0,15.3,2,19.6,6.1c4.3,4.1,6.5,9.7,6.5,16.8v22.9c0,5.4-1.2,9.9-3.6,13.5
			c-2.4,3.7-6,6.3-10.8,7.8l20.2,39.3h-12.6l-19.2-37.7h-13.3v37.7H483z M522.3,55.8c0-4-1.2-7.2-3.7-9.6c-2.5-2.3-6.1-3.5-10.9-3.5
			h-13.3v49.2h13.3c4.9,0,8.6-1.2,11-3.5c2.4-2.3,3.6-5.5,3.6-9.6V55.8z"/>
		<path d="M615.7,118.9c0,7.1-2.3,12.7-6.8,16.8c-4.5,4.1-11.5,6.1-20.9,6.1c-9.4,0-16.4-2-21.1-6.1c-4.6-4.1-7-9.7-7-16.8V53.4
			c0-7.1,2.3-12.7,6.8-16.8c4.5-4.1,11.5-6.1,20.9-6.1c9.4,0,16.4,2,21.1,6.1c4.6,4.1,7,9.7,7,16.8V118.9z M604.3,53.4
			c0-4.2-1.4-7.4-4.1-9.7c-2.7-2.3-6.9-3.4-12.5-3.4c-5.5,0-9.5,1.1-12.2,3.4c-2.7,2.3-4,5.5-4,9.7v65.6c0,4,1.4,7.2,4.1,9.6
			c2.7,2.4,6.9,3.5,12.5,3.5c5.5,0,9.5-1.1,12.2-3.4c2.7-2.3,4-5.5,4-9.7V53.4z"/>
		<path d="M706.1,38.5v100.9h-4.4v-19.3c-5.3,12.2-16.6,19.7-30.5,19.7c-19.6,0-34.5-14.7-34.5-35.8s15-35.8,34.5-35.8
			c13.6,0,25,7.3,30.3,19.4V38.5H706.1z M701.6,104.1c0-18.8-12.9-31.6-30.2-31.6c-17.3,0-30.2,12.8-30.2,31.6
			c0,18.8,12.9,31.7,30.2,31.7C688.7,135.7,701.6,122.8,701.6,104.1z"/>
		<path d="M794.5,104.7h-61.9c0.3,18.4,13.5,31,31.4,31c9.2,0,18-3.4,23.4-10.5l2.9,3c-6.4,7.6-15.9,11.6-26.2,11.6
			c-20.8,0-35.8-14.8-35.8-35.8s14.1-35.8,33.2-35.8c18.8,0,33,14.6,33,35.2V104.7z M732.8,101.1h57.5
			c-1.1-16.6-12.9-28.7-28.8-28.7C745.4,72.4,733.7,84.5,732.8,101.1z"/>
		<path d="M805.8,130.4l2.2-3.5c5.3,4.8,14.8,9,25.8,9c15.9,0,22.3-6,22.3-14.7c0-22.3-47.7-6.5-47.7-34.1
			c0-10.1,8.2-18.8,25.8-18.8c8.7,0,18.2,2.9,23.7,7.2l-2.3,3.5c-5.7-4.5-13.7-6.7-21.5-6.7c-14.7,0-21.1,6.4-21.1,14.6
			c0,23,47.6,7.5,47.6,34.3c0,11-9.1,18.6-26.9,18.6C822.1,139.8,811.2,135.9,805.8,130.4z"/>
		<path d="M878.3,46c0-2.4,2-4.5,4.5-4.5s4.5,2,4.5,4.4c0,2.4-2,4.5-4.5,4.5S878.3,48.3,878.3,46z M880.6,68.8h4.5v70.6h-4.5V68.8z"
			/>
		<path d="M977.4,68.8v63.8c0,23.1-11.2,33.6-33.3,33.6c-12.9,0-24.9-4.2-31.7-11.4l2.6-3.4c7.2,6.9,17.4,10.7,29,10.7
			c19.7,0,29-9,29-29v-15c-5.3,11.6-16.7,18.8-30.7,18.8c-20,0-35-14.3-35-34.4c0-20.1,15-34.3,35-34.3c14,0,25.6,7.2,30.9,18.9
			V68.8H977.4z M973.1,102.6c0-17.8-13.1-30.1-30.7-30.1c-17.7,0-30.6,12.2-30.6,30.1s12.9,30.3,30.6,30.3
			C960,132.9,973.1,120.4,973.1,102.6z"/>
		<path d="M1069.4,97.9v41.5h-4.5V98.2c0-16.9-9-25.7-24.3-25.7c-17.7,0-28.4,11.4-28.4,28.8v38.1h-4.5V68.8h4.4v17.3
			c4.5-10.9,14.7-17.8,29-17.8C1058.2,68.3,1069.4,78.5,1069.4,97.9z"/>
	</g>
	<g>
		<g>
			<path d="M61.3,34.6c27.4-18.7,65.3-15.8,89.5,8.6s26.8,62.2,7.9,89.5l9.6,9.7c24.1-32.7,21.5-79-8-108.7S84.5,1,51.7,24.9
				L61.3,34.6z"/>
			<path d="M136.6,153.2c-27,15.9-62.5,12.2-85.6-11.1S24.5,83.4,40.6,56.5l-9.7-9.8c-21.3,32.4-17.8,76.4,10.6,105
				s72.4,32.4,104.9,11.4L136.6,153.2z"/>
		</g>
		<g>
			<g>
				<path d="M39.4,22.4c-2.9-0.5-6.1,0.4-8.4,2.7l-3.2,3.2c-1.9,1.9-2.8,4.4-2.7,6.8l-3.7-3.7c0-2.4,1-4.9,2.8-6.7l3.3-3.3
					c2.2-2.2,5.2-3.1,8-2.8L39.4,22.4z"/>
				<path d="M34.1,18.4c-2.4,0.1-4.8,1-6.7,2.9l-3.3,3.3c-1.9,1.9-2.8,4.3-2.8,6.7l3.7,3.7c0-2.5,0.9-4.9,2.7-6.8l3.2-3.2
					c1.8-1.8,4.2-2.7,6.5-2.8c0.6,0,1.2,0,1.8,0.1l-3.9-3.9C35,18.5,34.6,18.4,34.1,18.4L34.1,18.4z"/>
			</g>
			<g>
				<path d="M28.4,9.6c-3-0.5-6.2,0.3-8.5,2.4l-3.3,2.9c-1.9,1.7-2.9,3.9-2.9,6.2l-4.1-3.7C6,14,6.1,8.5,9.9,5.1
					c1.7-1.5,3.7-2.3,5.9-2.5c2.8-0.3,5.7,0.6,7.8,2.5L28.4,9.6z"/>
				<path d="M16.5,2.6c-0.2,0-0.5,0-0.7,0c-2.1,0.2-4.2,1-5.9,2.5C6.1,8.5,6,14,9.6,17.3l4.1,3.7c0-2.2,1-4.5,2.9-6.2l3.3-2.9
					c1.8-1.6,4.2-2.5,6.6-2.5c0.6,0,1.3,0,1.9,0.1l-4.9-4.5C21.6,3.3,19.1,2.5,16.5,2.6L16.5,2.6z"/>
			</g>
			<polygon points="193.3,185.4 178.5,154.4 162.2,170.6 			"/>
		</g>
	</g>
</g>
</svg>
