<?xml version="1.0" encoding="UTF-8"?>
<svg id="Layer_1" data-name="Layer 1" xmlns="http://www.w3.org/2000/svg" version="1.1" viewBox="0 0 1090.6 188">
  <defs>
    <style>
      .cls-1 {
        fill: #fff;
        stroke-width: 0px;
      }
    </style>
  </defs>
  <g>
    <path class="cls-1" d="M279.1,32.9h11.5v86c0,7.1-2.3,12.7-6.8,16.8-4.5,4.1-11.5,6.1-20.9,6.1s-16.4-2-21.1-6.1c-4.6-4.1-7-9.7-7-16.8V32.9h11.5v86c0,4,1.4,7.2,4.1,9.6,2.7,2.4,6.9,3.5,12.5,3.5s9.5-1.2,12.2-3.5,4-5.5,4-9.6V32.9h0Z"/>
    <path class="cls-1" d="M353.2,32.9l24.1,106.5h-11.5l-5.6-24.6h-31.2l-5.6,24.6h-11.5l24.1-106.5h17.2ZM331.1,105h26.9l-13.4-59.3-13.5,59.3Z"/>
    <path class="cls-1" d="M400.2,139.4V32.9h26.4c8.7,0,15.3,2,19.6,6.1,4.3,4.1,6.5,9.7,6.5,16.8v60.6c0,7.1-2.1,12.7-6.4,16.8s-10.8,6.1-19.7,6.1h-26.4ZM441.2,55.8c0-3.2-1.2-6.1-3.7-8.9s-6.1-4.2-10.9-4.2h-14.9v86.9h14.9c4.9,0,8.6-1.4,11-4.1,2.4-2.7,3.6-5.7,3.6-9v-60.7Z"/>
    <path class="cls-1" d="M483,139.4V32.9h24.7c8.7,0,15.3,2,19.6,6.1s6.5,9.7,6.5,16.8v22.9c0,5.4-1.2,9.9-3.6,13.5-2.4,3.7-6,6.3-10.8,7.8l20.2,39.3h-12.6l-19.2-37.7h-13.3v37.7h-11.5ZM522.3,55.8c0-4-1.2-7.2-3.7-9.6-2.5-2.3-6.1-3.5-10.9-3.5h-13.3v49.2h13.3c4.9,0,8.6-1.2,11-3.5,2.4-2.3,3.6-5.5,3.6-9.6v-23h0Z"/>
    <path class="cls-1" d="M615.7,118.9c0,7.1-2.3,12.7-6.8,16.8-4.5,4.1-11.5,6.1-20.9,6.1s-16.4-2-21.1-6.1c-4.6-4.1-7-9.7-7-16.8V53.4c0-7.1,2.3-12.7,6.8-16.8s11.5-6.1,20.9-6.1,16.4,2,21.1,6.1c4.6,4.1,7,9.7,7,16.8v65.5ZM604.3,53.4c0-4.2-1.4-7.4-4.1-9.7-2.7-2.3-6.9-3.4-12.5-3.4s-9.5,1.1-12.2,3.4c-2.7,2.3-4,5.5-4,9.7v65.6c0,4,1.4,7.2,4.1,9.6,2.7,2.4,6.9,3.5,12.5,3.5s9.5-1.1,12.2-3.4c2.7-2.3,4-5.5,4-9.7V53.4Z"/>
    <path class="cls-1" d="M706.1,38.5v100.9h-4.4v-19.3c-5.3,12.2-16.6,19.7-30.5,19.7s-34.5-14.7-34.5-35.8,15-35.8,34.5-35.8,25,7.3,30.3,19.4v-49.1h4.6ZM701.6,104.1c0-18.8-12.9-31.6-30.2-31.6s-30.2,12.8-30.2,31.6,12.9,31.7,30.2,31.7c17.3-.1,30.2-13,30.2-31.7Z"/>
    <path class="cls-1" d="M794.5,104.7h-61.9c.3,18.4,13.5,31,31.4,31s18-3.4,23.4-10.5l2.9,3c-6.4,7.6-15.9,11.6-26.2,11.6-20.8,0-35.8-14.8-35.8-35.8s14.1-35.8,33.2-35.8,33,14.6,33,35.2v1.3h0ZM732.8,101.1h57.5c-1.1-16.6-12.9-28.7-28.8-28.7-16.1,0-27.8,12.1-28.7,28.7Z"/>
    <path class="cls-1" d="M805.8,130.4l2.2-3.5c5.3,4.8,14.8,9,25.8,9,15.9,0,22.3-6,22.3-14.7,0-22.3-47.7-6.5-47.7-34.1s8.2-18.8,25.8-18.8,18.2,2.9,23.7,7.2l-2.3,3.5c-5.7-4.5-13.7-6.7-21.5-6.7-14.7,0-21.1,6.4-21.1,14.6,0,23,47.6,7.5,47.6,34.3s-9.1,18.6-26.9,18.6-22.5-3.9-27.9-9.4Z"/>
    <path class="cls-1" d="M878.3,46c0-2.4,2-4.5,4.5-4.5s4.5,2,4.5,4.4-2,4.5-4.5,4.5-4.5-2.1-4.5-4.4ZM880.6,68.8h4.5v70.6h-4.5v-70.6Z"/>
    <path class="cls-1" d="M977.4,68.8v63.8c0,23.1-11.2,33.6-33.3,33.6s-24.9-4.2-31.7-11.4l2.6-3.4c7.2,6.9,17.4,10.7,29,10.7,19.7,0,29-9,29-29v-15c-5.3,11.6-16.7,18.8-30.7,18.8-20,0-35-14.3-35-34.4s15-34.3,35-34.3,25.6,7.2,30.9,18.9v-18.3h4.2ZM973.1,102.6c0-17.8-13.1-30.1-30.7-30.1s-30.6,12.2-30.6,30.1,12.9,30.3,30.6,30.3,30.7-12.5,30.7-30.3Z"/>
    <path class="cls-1" d="M1069.4,97.9v41.5h-4.5v-41.2c0-16.9-9-25.7-24.3-25.7s-28.4,11.4-28.4,28.8v38.1h-4.5v-70.6h4.4v17.3c4.5-10.9,14.7-17.8,29-17.8s28.3,10.2,28.3,29.6Z"/>
  </g>
  <g>
    <g>
      <path class="cls-1" d="M61.3,34.6c27.4-18.7,65.3-15.8,89.5,8.6,24.2,24.4,26.8,62.2,7.9,89.5l9.6,9.7c24.1-32.7,21.5-79-8-108.7S84.5,1,51.7,24.9l9.6,9.7Z"/>
      <path class="cls-1" d="M136.6,153.2c-27,15.9-62.5,12.2-85.6-11.1s-26.5-58.7-10.4-85.6l-9.7-9.8c-21.3,32.4-17.8,76.4,10.6,105s72.4,32.4,104.9,11.4l-9.8-9.9Z"/>
    </g>
    <g>
      <g>
        <path class="cls-1" d="M39.4,22.4c-2.9-.5-6.1.4-8.4,2.7l-3.2,3.2c-1.9,1.9-2.8,4.4-2.7,6.8l-3.7-3.7c0-2.4,1-4.9,2.8-6.7l3.3-3.3c2.2-2.2,5.2-3.1,8-2.8l3.9,3.8Z"/>
        <path class="cls-1" d="M34.1,18.4c-2.4.1-4.8,1-6.7,2.9l-3.3,3.3c-1.9,1.9-2.8,4.3-2.8,6.7l3.7,3.7c0-2.5.9-4.9,2.7-6.8l3.2-3.2c1.8-1.8,4.2-2.7,6.5-2.8.6,0,1.2,0,1.8.1l-3.9-3.9c-.3,0-.7,0-1.2,0h0Z"/>
      </g>
      <g>
        <path class="cls-1" d="M28.4,9.6c-3-.5-6.2.3-8.5,2.4l-3.3,2.9c-1.9,1.7-2.9,3.9-2.9,6.2l-4.1-3.7c-3.6-3.4-3.5-8.9.3-12.3,1.7-1.5,3.7-2.3,5.9-2.5,2.8-.3,5.7.6,7.8,2.5l4.8,4.5Z"/>
        <path class="cls-1" d="M16.5,2.6h-.7c-2.1.2-4.2,1-5.9,2.5-3.8,3.4-3.9,8.9-.3,12.2l4.1,3.7c0-2.2,1-4.5,2.9-6.2l3.3-2.9c1.8-1.6,4.2-2.5,6.6-2.5s1.3,0,1.9.1l-4.9-4.5c-1.9-1.7-4.4-2.5-7-2.4h0Z"/>
      </g>
      <polygon class="cls-1" points="193.3 185.4 178.5 154.4 162.2 170.6 193.3 185.4"/>
    </g>
  </g>
</svg>