<?xml version="1.0" encoding="UTF-8"?>
<svg id="Layer_1" data-name="Layer 1" xmlns="http://www.w3.org/2000/svg" version="1.1" viewBox="0 0 202.6 188">
  <defs>
    <style>
      .cls-1 {
        fill: #fff;
        stroke-width: 0px;
      }
    </style>
  </defs>
  <g>
    <path class="cls-1" d="M61.3,34.6c27.4-18.7,65.3-15.8,89.5,8.6,24.2,24.4,26.8,62.2,7.9,89.5l9.6,9.7c24.1-32.7,21.5-79-8-108.7S84.5,1,51.7,24.9l9.6,9.7Z"/>
    <path class="cls-1" d="M136.6,153.2c-27,15.9-62.5,12.2-85.6-11.1s-26.5-58.7-10.4-85.6l-9.7-9.8c-21.3,32.4-17.8,76.4,10.6,105s72.4,32.4,104.9,11.4l-9.8-9.9Z"/>
  </g>
  <g>
    <g>
      <path class="cls-1" d="M39.4,22.4c-2.9-.5-6.1.4-8.4,2.7l-3.2,3.2c-1.9,1.9-2.8,4.4-2.7,6.8l-3.7-3.7c0-2.4,1-4.9,2.8-6.7l3.3-3.3c2.2-2.2,5.2-3.1,8-2.8l3.9,3.8Z"/>
      <path class="cls-1" d="M34.1,18.4c-2.4.1-4.8,1-6.7,2.9l-3.3,3.3c-1.9,1.9-2.8,4.3-2.8,6.7l3.7,3.7c0-2.5.9-4.9,2.7-6.8l3.2-3.2c1.8-1.8,4.2-2.7,6.5-2.8.6,0,1.2,0,1.8.1l-3.9-3.9c-.3,0-.7,0-1.2,0h0Z"/>
    </g>
    <g>
      <path class="cls-1" d="M28.4,9.6c-3-.5-6.2.3-8.5,2.4l-3.3,2.9c-1.9,1.7-2.9,3.9-2.9,6.2l-4.1-3.7c-3.6-3.4-3.5-8.9.3-12.3,1.7-1.5,3.7-2.3,5.9-2.5,2.8-.3,5.7.6,7.8,2.5l4.8,4.5Z"/>
      <path class="cls-1" d="M16.5,2.6h-.7c-2.1.2-4.2,1-5.9,2.5-3.8,3.4-3.9,8.9-.3,12.2l4.1,3.7c0-2.2,1-4.5,2.9-6.2l3.3-2.9c1.8-1.6,4.2-2.5,6.6-2.5s1.3,0,1.9.1l-4.9-4.5c-1.9-1.7-4.4-2.5-7-2.4h0Z"/>
    </g>
    <polygon class="cls-1" points="193.3 185.4 178.5 154.4 162.2 170.6 193.3 185.4"/>
  </g>
</svg>