<?xml version="1.0" encoding="UTF-8"?>
<svg id="Layer_1" data-name="Layer 1" xmlns="http://www.w3.org/2000/svg" version="1.1" viewBox="0 0 1090.6 188">
  <defs>
    <style>
      .cls-1 {
        fill: #fff;
        stroke-width: 0px;
      }
    </style>
  </defs>
  <g>
    <path class="cls-1" d="M279.1,118.9V32.9h11.5v86c0,7.3-2.3,13-7,17-4.6,4-11.6,6-20.8,6s-16.2-2-20.9-6-7-9.6-7-17V32.9h11.5v86c0,8.7,5.5,13.1,16.4,13.1s16.3-4.3,16.3-13.1Z"/>
    <path class="cls-1" d="M336,32.9h17.2l24.1,106.5h-11.5l-5.6-24.6h-31.2l-5.6,24.6h-11.5l24.1-106.5ZM344.5,45.7l-13.4,59.3h26.9l-13.5-59.3Z"/>
    <path class="cls-1" d="M426.6,139.4h-26.4V32.9h26.4c8.5,0,15,2,19.4,6.1,4.4,4,6.6,9.7,6.6,16.9v60.6c0,7.3-2.2,13-6.6,17-4.2,3.9-10.7,5.9-19.4,5.9ZM441.2,116.5v-60.7c0-3.5-1.3-6.6-3.9-9.2-2.6-2.6-6.1-3.9-10.7-3.9h-14.9v86.9h14.9c4.6,0,8.2-1.3,10.7-3.9,2.6-2.5,3.9-5.6,3.9-9.2Z"/>
    <path class="cls-1" d="M494.5,139.4h-11.5V32.9h24.7c8.5,0,15,2,19.4,6.1,4.4,4,6.6,9.7,6.6,16.9v22.9c0,11.1-4.8,18.2-14.4,21.3l20.2,39.3h-12.6l-19.2-37.7h-13.3v37.7h0ZM522.3,78.8v-23c0-4.2-1.3-7.4-3.8-9.7s-6.1-3.4-10.8-3.4h-13.3v49.2h13.3c9.8,0,14.6-4.4,14.6-13.1Z"/>
    <path class="cls-1" d="M615.7,53.4v65.6c0,7.3-2.3,13-7,17-4.6,4-11.6,6-20.8,6s-16.2-2-20.9-6-7-9.6-7-17V53.4c0-7.3,2.3-13,7-17,4.6-4,11.6-6,20.8-6s16.2,2,20.9,6,7,9.7,7,17ZM604.3,118.9V53.4c0-8.7-5.5-13.1-16.4-13.1s-16.4,4.4-16.4,13.1v65.6c0,8.7,5.5,13.1,16.4,13.1,10.9-.1,16.4-4.4,16.4-13.2Z"/>
    <path class="cls-1" d="M706.1,38.5v100.9h-4.4v-19.3c-2.6,6.2-6.6,11-12,14.5s-11.5,5.2-18.4,5.2-12.3-1.5-17.5-4.6c-5.3-3-9.4-7.3-12.4-12.7-3-5.4-4.6-11.6-4.6-18.5s1.5-13.1,4.6-18.5c3-5.4,7.2-9.7,12.4-12.7,5.3-3,11.1-4.6,17.5-4.6s12.9,1.7,18.3,5.2c5.4,3.4,9.4,8.2,12,14.3v-49.2h4.5ZM686.9,131.7c4.6-2.7,8.2-6.4,10.8-11.2,2.6-4.8,3.9-10.3,3.9-16.5s-1.3-11.6-3.9-16.4c-2.6-4.8-6.2-8.5-10.8-11.2s-9.7-4-15.4-4-10.9,1.3-15.4,4c-4.6,2.7-8.2,6.4-10.8,11.2-2.6,4.8-3.9,10.2-3.9,16.4s1.3,11.7,3.9,16.5c2.6,4.8,6.2,8.5,10.8,11.2s9.7,4,15.4,4,10.8-1.3,15.4-4Z"/>
    <path class="cls-1" d="M794.5,104.7h-61.9c0,6,1.5,11.3,4.2,16s6.5,8.4,11.2,11c4.8,2.6,10.1,3.9,16,3.9s9.2-.9,13.3-2.7,7.4-4.4,10.1-7.8l2.9,3c-3.2,3.7-7,6.6-11.6,8.6-4.5,2-9.4,3-14.7,3s-13-1.5-18.4-4.6c-5.4-3-9.6-7.3-12.7-12.7-3.1-5.4-4.6-11.6-4.6-18.5s1.4-13.1,4.3-18.5c2.9-5.4,6.8-9.7,11.9-12.7,5.1-3,10.7-4.6,17-4.6s11.8,1.5,16.8,4.5,9,7.2,11.9,12.5c2.9,5.4,4.4,11.4,4.4,18.2v1.4h-.1ZM747.2,76c-4.3,2.4-7.7,5.9-10.2,10.3s-3.9,9.3-4.2,14.8h57.5c-.4-5.4-1.8-10.4-4.4-14.8-2.6-4.4-6-7.8-10.2-10.3-4.2-2.4-9-3.7-14.2-3.7-5.3,0-10.1,1.3-14.3,3.7Z"/>
    <path class="cls-1" d="M817.6,137.2c-5-1.7-9-4-11.8-6.8l2.2-3.5c2.9,2.5,6.6,4.7,11.2,6.4,4.6,1.7,9.5,2.6,14.6,2.6,7.6,0,13.2-1.3,16.9-3.9,3.6-2.6,5.4-6.2,5.4-10.8s-1-5.8-2.9-7.8c-2-1.9-4.4-3.3-7.3-4.2-2.9-.9-6.8-1.8-11.7-2.7-5.7-1.1-10.3-2.2-13.7-3.3-3.4-1.1-6.3-3-8.6-5.5-2.4-2.5-3.5-6.1-3.5-10.6s2.2-9.8,6.6-13.4c4.4-3.6,10.8-5.4,19.2-5.4s8.7.7,13.1,2c4.4,1.3,7.9,3.1,10.6,5.2l-2.3,3.5c-2.8-2.2-6.1-3.8-9.9-5-3.8-1.1-7.6-1.7-11.6-1.7-7,0-12.2,1.3-15.8,4-3.5,2.7-5.3,6.2-5.3,10.5s1,6.2,3,8.2,4.5,3.5,7.4,4.4c2.9,1,7,1.9,12,2.9,5.4,1,9.8,2.1,13.2,3.2s6.2,2.9,8.5,5.4c2.3,2.4,3.5,5.8,3.5,10.2s-2.3,10.2-6.9,13.6c-4.6,3.4-11.3,5-20,5-5.7.1-11.1-.7-16.1-2.5Z"/>
    <path class="cls-1" d="M879.6,49c-.9-.9-1.4-1.9-1.4-3.1s.4-2.3,1.3-3.2c.9-.9,1.9-1.3,3.2-1.3s2.2.4,3.1,1.3c.9.9,1.4,1.9,1.4,3.1s-.5,2.2-1.4,3.1c-.9.9-2,1.4-3.1,1.4s-2.2-.4-3.1-1.3ZM880.6,68.8h4.5v70.6h-4.5v-70.6Z"/>
    <path class="cls-1" d="M977.4,68.8v63.8c0,11.4-2.8,19.9-8.3,25.4s-13.9,8.2-25,8.2-12.6-1-18.2-3c-5.6-2-10.1-4.8-13.5-8.4l2.6-3.4c3.6,3.4,7.9,6.1,12.9,8,4.9,1.9,10.3,2.8,16.1,2.8,9.9,0,17.2-2.3,21.9-7s7.1-12,7.1-22v-15c-2.6,5.8-6.7,10.4-12.1,13.7-5.4,3.4-11.7,5-18.6,5s-12.6-1.5-17.9-4.4c-5.3-2.9-9.5-7-12.5-12.2s-4.6-11.1-4.6-17.7,1.5-12.5,4.6-17.7c3-5.2,7.2-9.3,12.5-12.2,5.3-2.9,11.3-4.4,17.9-4.4s13.2,1.7,18.7,5c5.5,3.4,9.5,8,12.2,13.9v-18.4h4.2ZM958,129c4.7-2.6,8.3-6.2,11-10.8,2.7-4.6,4-9.8,4-15.6s-1.3-11-4-15.6-6.3-8.1-11-10.7c-4.7-2.5-9.9-3.8-15.7-3.8s-11,1.3-15.7,3.8-8.3,6.1-10.9,10.7c-2.6,4.6-3.9,9.8-3.9,15.6s1.3,11.1,3.9,15.7c2.6,4.6,6.3,8.2,10.9,10.7,4.7,2.6,9.9,3.9,15.7,3.9s11.1-1.3,15.7-3.9Z"/>
    <path class="cls-1" d="M1061.7,76c5.1,5.1,7.6,12.4,7.6,22v41.5h-4.5v-41.3c0-8.3-2.1-14.7-6.3-19.1-4.2-4.4-10.2-6.6-18-6.6s-15.7,2.6-20.8,7.8c-5.1,5.2-7.6,12.2-7.6,21v38.1h-4.5v-70.6h4.4v17.3c2.3-5.5,5.9-9.9,10.9-13.1,5-3.2,11-4.8,18-4.8,8.8,0,15.8,2.7,20.8,7.8Z"/>
  </g>
  <g>
    <g>
      <path class="cls-1" d="M61.3,34.6c27.4-18.7,65.3-15.8,89.5,8.6,24.2,24.4,26.8,62.2,7.9,89.5l9.6,9.7c24.1-32.7,21.5-79-8-108.7S84.5,1,51.7,24.9l9.6,9.7Z"/>
      <path class="cls-1" d="M136.6,153.2c-27,15.9-62.5,12.2-85.6-11.1s-26.5-58.7-10.4-85.6l-9.7-9.8c-21.3,32.4-17.8,76.4,10.6,105s72.4,32.4,104.9,11.4l-9.8-9.9Z"/>
    </g>
    <g>
      <g>
        <path class="cls-1" d="M39.4,22.4c-2.9-.5-6.1.4-8.4,2.7l-3.2,3.2c-1.9,1.9-2.8,4.4-2.7,6.8l-3.7-3.7c0-2.4,1-4.9,2.8-6.7l3.3-3.3c2.2-2.2,5.2-3.1,8-2.8l3.9,3.8Z"/>
        <path class="cls-1" d="M34.1,18.4c-2.4.1-4.8,1-6.7,2.9l-3.3,3.3c-1.9,1.9-2.8,4.3-2.8,6.7l3.7,3.7c0-2.5.9-4.9,2.7-6.8l3.2-3.2c1.8-1.8,4.2-2.7,6.5-2.8.6,0,1.2,0,1.8.1l-3.9-3.9c-.3,0-.7,0-1.2,0h0Z"/>
      </g>
      <g>
        <path class="cls-1" d="M28.4,9.6c-3-.5-6.2.3-8.5,2.4l-3.3,2.9c-1.9,1.7-2.9,3.9-2.9,6.2l-4.1-3.7c-3.6-3.4-3.5-8.9.3-12.3,1.7-1.5,3.7-2.3,5.9-2.5,2.8-.3,5.7.6,7.8,2.5l4.8,4.5Z"/>
        <path class="cls-1" d="M16.5,2.6h-.7c-2.1.2-4.2,1-5.9,2.5-3.8,3.4-3.9,8.9-.3,12.2l4.1,3.7c0-2.2,1-4.5,2.9-6.2l3.3-2.9c1.8-1.6,4.2-2.5,6.6-2.5s1.3,0,1.9.1l-4.9-4.5c-1.9-1.7-4.4-2.5-7-2.4h0Z"/>
      </g>
      <polygon class="cls-1" points="193.3 185.4 178.5 154.4 162.2 170.6 193.3 185.4"/>
    </g>
  </g>
</svg>