<?xml version="1.0" encoding="UTF-8"?>
<svg id="Warstwa_1" data-name="Warstwa 1" xmlns="http://www.w3.org/2000/svg" version="1.1" viewBox="0 0 500 500">
  <defs>
    <style>
      .cls-1 {
        fill: #000;
        fill-rule: evenodd;
        stroke-width: 0px;
      }
    </style>
  </defs>
  <path class="cls-1" d="M481,458.5c5.7,0,9.3,3.9,9.3,9.6s-3.6,9.3-9.3,9.3H23.7c-3.6,0-9.3-5.7-9.3-9.3,0-5.7,5.7-9.6,9.3-9.6h457.3ZM478.9,22.6h0c2.1,0,7.8,5.7,7.8,7.8,0,5.4-5.7,9.3-7.8,9.3H20.1c-5.7,0-9.6-3.9-9.6-9.3s3.9-7.8,9.6-7.8h458.8ZM341,313.4h0c6,0,9.6,3.6,9.6,9.3s-3.6,7.5-9.6,7.5H20.1c-5.7,0-9.6-3.9-9.6-7.5,0-5.7,3.9-9.3,9.6-9.3h320.9ZM341,169.8h0c6,0,9.6,1.8,9.6,5.7,0,5.7-3.6,9.3-9.6,9.3H20.1c-5.7,0-9.6-3.6-9.6-9.3s3.9-5.7,9.6-5.7h320.9Z"/>
</svg>